<svg version="1.1" id="Layer_1" xmlns="http://www.w3.org/2000/svg" xmlns:xlink="http://www.w3.org/1999/xlink" x="0px" y="0px"
	 width="100%" viewBox="0 0 1695 437" enable-background="new 0 0 1695 437" xml:space="preserve">
<path fill="#FEFEFE" opacity="1.000000" stroke="none" 
	d="
M1123.000000,438.000000 
	C748.710449,438.000000 374.920868,438.000000 1.065643,438.000000 
	C1.065643,292.394165 1.065643,146.788315 1.065643,1.091222 
	C566.000000,1.091222 1131.000000,1.091222 1695.966064,1.091222 
	C1695.966064,146.746048 1695.966064,292.373047 1695.966064,438.000000 
	C1505.121460,438.000000 1314.310669,438.000000 1123.000000,438.000000 
M1135.499756,352.347961 
	C1204.826416,352.348083 1274.153076,352.317902 1343.479614,352.428284 
	C1347.376221,352.434509 1349.325806,351.608917 1350.472412,347.491852 
	C1353.541138,336.471252 1357.223877,325.621429 1360.672241,314.706787 
	C1362.833496,307.866241 1365.011597,301.031067 1367.443115,293.371094 
	C1314.717041,293.371094 1262.941284,293.371094 1209.729736,293.371094 
	C1217.432983,287.305725 1223.951904,282.181244 1230.462036,277.045685 
	C1286.426025,232.897491 1342.285278,188.615387 1398.454468,144.729980 
	C1407.629395,137.561584 1414.770020,130.129929 1417.513428,118.229996 
	C1420.552612,105.046822 1425.402466,92.281090 1429.633789,78.792229 
	C1427.391479,78.792229 1425.753296,78.792221 1424.115112,78.792236 
	C1361.620117,78.792648 1299.125244,78.793076 1236.630249,78.793495 
	C1222.964722,78.793587 1209.298340,78.867722 1195.634155,78.732452 
	C1192.836548,78.704765 1191.563843,79.489426 1190.756592,82.294868 
	C1188.555908,89.943321 1185.906860,97.461533 1183.520630,105.058144 
	C1180.250977,115.467140 1177.059937,125.900833 1173.553223,137.235107 
	C1218.837891,137.235107 1263.416992,137.235107 1307.996216,137.235107 
	C1308.073364,137.598938 1308.150513,137.962769 1308.227661,138.326599 
	C1242.387817,190.266815 1176.547974,242.207031 1110.708252,294.147247 
	C1110.379395,293.939819 1110.050537,293.732391 1109.721680,293.524963 
	C1119.864868,261.342255 1130.008057,229.159531 1140.250610,196.661819 
	C1138.771240,196.489532 1137.976196,196.316116 1137.181030,196.315918 
	C1096.184326,196.305161 1055.187622,196.353394 1014.191284,196.228180 
	C1010.881470,196.218079 1009.930115,197.799988 1009.124695,200.395050 
	C1005.338867,212.592514 1001.451721,224.758514 997.636597,236.946945 
	C995.986633,242.218201 994.422974,247.516464 992.545044,253.709564 
	C1011.734497,253.709564 1029.932739,253.709564 1048.550171,253.709564 
	C1045.937744,261.919983 1043.620850,269.375031 1041.151489,276.779144 
	C1040.772461,277.915436 1039.910889,279.247162 1038.901489,279.764221 
	C1018.080688,290.429474 996.613098,298.572998 972.569397,297.010773 
	C946.332214,295.306000 931.977783,278.839905 934.126648,252.667603 
	C935.944824,230.523651 942.561096,209.728867 951.784363,189.665939 
	C958.971191,174.032990 968.469116,160.144424 982.470032,149.772949 
	C1000.540161,136.387070 1020.550415,131.005569 1042.767090,136.033554 
	C1054.852417,138.768692 1062.039673,146.664078 1064.549316,158.757095 
	C1065.037720,161.110474 1065.102783,163.551682 1065.381714,166.124084 
	C1093.997559,161.240051 1122.145020,156.435959 1150.589355,151.581207 
	C1150.589355,147.486542 1150.696167,143.859528 1150.570312,140.240585 
	C1150.093750,126.534302 1147.068359,113.538559 1139.052490,102.146057 
	C1128.015381,86.459579 1111.837402,79.795906 1093.658203,76.955933 
	C1070.336304,73.312576 1046.891113,73.260033 1023.415894,75.018097 
	C990.958740,77.448822 961.287170,87.832642 934.688110,106.648666 
	C900.937988,130.523270 877.448486,162.376602 862.739929,200.762253 
	C851.425171,230.291153 844.217407,260.499969 850.711487,292.414886 
	C855.338928,315.156372 867.035400,332.882599 887.810547,344.029327 
	C903.874817,352.648499 921.438416,355.681000 939.281616,356.782043 
	C986.130371,359.672913 1030.808228,351.467529 1072.611938,329.440247 
	C1082.306396,324.332062 1092.110596,319.432587 1102.884521,313.914642 
	C1098.807007,327.119843 1094.998169,339.454987 1091.017212,352.347321 
	C1106.207520,352.347321 1120.353638,352.347321 1135.499756,352.347961 
M638.476257,352.346619 
	C640.642822,352.348236 642.843262,352.107147 644.968750,352.403473 
	C649.023376,352.968689 650.709045,351.361938 651.870300,347.399445 
	C655.933960,333.533142 660.479614,319.808105 664.842773,306.029602 
	C671.260254,285.763977 677.644043,265.487488 684.167480,245.256058 
	C684.640747,243.788300 685.944214,241.750473 687.176941,241.494171 
	C700.500671,238.723846 712.126587,245.362610 716.776672,258.176727 
	C717.679993,260.665863 718.411133,263.237091 718.985657,265.822876 
	C725.360352,294.512604 731.688477,323.212616 738.062012,352.058685 
	C769.647888,352.058685 801.065308,352.058685 832.688293,352.058685 
	C832.494141,350.283752 832.441284,348.799957 832.158020,347.361542 
	C828.433044,328.448181 824.820190,309.510895 820.865967,290.645294 
	C818.862000,281.084656 816.867859,271.437927 813.726440,262.219604 
	C809.075745,248.572144 801.443970,237.101181 786.491821,232.652252 
	C786.189453,232.562271 786.063232,231.879913 785.752502,231.274460 
	C802.871582,227.595535 818.649170,221.273621 832.725586,210.952728 
	C858.804077,191.831909 874.466797,166.420380 877.602905,134.177048 
	C880.405396,105.363823 865.655334,86.860687 837.202576,82.108727 
	C828.351135,80.630424 819.348450,79.314308 810.405457,79.249695 
	C758.751465,78.876488 707.094543,78.871407 655.438904,78.937950 
	C653.983704,78.939827 651.702148,80.865005 651.204834,82.359024 
	C645.753601,98.735672 640.537659,115.191383 635.340210,131.651642 
	C615.044067,195.929672 594.773193,260.215729 574.505554,324.502747 
	C571.641663,333.586700 568.848022,342.692841 565.848633,352.346375 
	C590.207214,352.346375 613.845825,352.346375 638.476257,352.346619 
M1410.738892,185.174484 
	C1393.176514,240.686432 1375.614258,296.198395 1357.848755,352.352142 
	C1360.437378,352.352142 1362.243042,352.352173 1364.048584,352.352112 
	C1384.380737,352.351440 1404.713013,352.350464 1425.045166,352.350098 
	C1477.375610,352.349152 1529.706177,352.312195 1582.036377,352.424744 
	C1585.746094,352.432709 1587.557251,351.622528 1588.675415,347.724854 
	C1592.065674,335.908356 1596.041504,324.260559 1599.736206,312.530334 
	C1601.999878,305.343475 1604.166138,298.126038 1606.560669,290.321106 
	C1557.970947,290.321106 1510.196533,290.321106 1462.048828,290.321106 
	C1462.486572,288.429810 1462.717773,286.987274 1463.154907,285.610168 
	C1467.875122,270.745483 1472.789307,255.939438 1477.255859,240.999405 
	C1478.350708,237.337555 1480.026001,236.513809 1483.541138,236.524231 
	C1521.871948,236.637939 1560.203369,236.595291 1598.534546,236.595200 
	C1609.318359,236.595169 1609.365479,236.610199 1612.584717,226.490463 
	C1617.362549,211.470734 1622.065552,196.427216 1627.078491,180.511230 
	C1583.284668,180.511230 1540.117310,180.511230 1496.448364,180.511230 
	C1500.858887,166.530319 1505.148926,153.442139 1509.051270,140.239365 
	C1510.172485,136.445801 1512.688965,137.060150 1515.262451,137.059540 
	C1557.093506,137.049637 1598.924438,137.052643 1640.755493,137.052689 
	C1651.037354,137.052704 1651.040161,137.053574 1654.102417,127.342918 
	C1659.141113,111.364555 1664.175537,95.384903 1669.322632,79.053833 
	C1667.594849,78.947884 1666.305176,78.799789 1665.015503,78.799606 
	C1592.852783,78.789223 1520.690063,78.827072 1448.527710,78.687683 
	C1444.855469,78.680588 1443.746704,80.181458 1442.803101,83.191284 
	C1432.224487,116.940590 1421.552368,150.660675 1410.738892,185.174484 
M254.431259,172.037216 
	C248.769089,170.685959 243.040878,169.559937 237.462189,167.923996 
	C231.098251,166.057785 224.655380,164.208008 218.633194,161.493805 
	C211.269684,158.175034 208.993317,151.726532 212.512772,144.514008 
	C214.353775,140.741180 217.029358,137.031372 220.202316,134.313934 
	C232.143906,124.086716 246.274139,123.323402 260.763550,126.680992 
	C272.550964,129.412430 278.221558,137.149551 278.588593,149.400116 
	C278.691406,152.831970 278.604279,156.269501 278.604279,160.233368 
	C286.803986,159.802368 295.081635,159.401367 303.354980,158.925323 
	C320.637848,157.930862 337.922302,156.952744 355.192291,155.766998 
	C356.496429,155.677460 358.565948,154.173599 358.801331,153.024384 
	C361.156677,141.524536 361.717865,129.913666 359.312164,118.351929 
	C355.185883,98.521233 341.945312,87.242897 323.581299,80.986580 
	C305.014618,74.661247 285.778076,73.679886 266.391418,74.030121 
	C242.442154,74.462784 218.888168,77.215485 196.694244,86.946350 
	C164.348129,101.128387 140.319992,123.448685 130.408463,158.235794 
	C123.255737,183.340134 129.529114,204.307144 152.227783,219.009979 
	C168.550858,229.583084 186.862885,234.923492 205.352707,240.052948 
	C216.214890,243.066330 227.163879,246.281982 237.400269,250.899750 
	C249.018875,256.141052 252.044449,267.025940 246.687393,278.529572 
	C236.441498,300.531403 201.021713,311.205078 180.375595,298.326355 
	C167.441147,290.258057 166.039841,277.657532 167.691757,264.050507 
	C167.961639,261.827454 168.177490,259.597839 168.481079,256.790985 
	C140.971466,258.554596 114.124886,260.275726 86.141151,262.069763 
	C85.436676,272.718475 83.625504,283.182373 84.265648,293.494110 
	C86.452347,328.718445 102.713722,345.480865 133.058716,352.125000 
	C167.905457,359.754761 202.961594,359.867554 237.439590,350.553436 
	C278.761719,339.390442 309.784363,314.798737 328.567474,275.808624 
	C333.805328,264.935883 336.910004,253.421127 337.413544,241.264221 
	C338.344788,218.781830 328.125275,202.710861 309.019440,191.798248 
	C292.219421,182.202682 273.655029,177.383560 254.431259,172.037216 
M444.500122,78.794647 
	C426.501495,78.793495 408.502289,78.865593 390.504791,78.722885 
	C387.309082,78.697548 385.818970,79.607620 384.945404,82.807152 
	C383.023529,89.846558 380.608124,96.750870 378.409332,103.715111 
	C373.984314,117.730476 369.569489,131.749054 364.959839,146.370956 
	C393.640472,146.370956 421.722534,146.370956 450.568787,146.370956 
	C428.826508,215.247086 407.290375,283.470306 385.548828,352.344086 
	C388.351227,352.344086 390.160187,352.343994 391.969177,352.344055 
	C415.467865,352.344574 438.970306,352.119781 462.462585,352.507904 
	C468.169128,352.602234 470.291138,350.842743 471.959625,345.488373 
	C492.209717,280.503418 512.769714,215.615082 533.143555,150.668533 
	C534.235901,147.186493 535.983154,146.217453 539.516357,146.238144 
	C565.014038,146.387360 590.513733,146.224091 616.010742,146.422806 
	C619.571594,146.450562 620.880188,145.232559 621.830505,142.084702 
	C625.572327,129.689194 629.558228,117.367523 633.426575,105.009972 
	C636.096863,96.479683 638.722473,87.935379 641.554810,78.794647 
	C575.772095,78.794647 510.636139,78.794647 444.500122,78.794647 
z"/>
<path fill="#020202" opacity="1.000000" stroke="none" 
	d="
M1134.999756,352.347656 
	C1120.353638,352.347321 1106.207520,352.347321 1091.017212,352.347321 
	C1094.998169,339.454987 1098.807007,327.119843 1102.884521,313.914642 
	C1092.110596,319.432587 1082.306396,324.332062 1072.611938,329.440247 
	C1030.808228,351.467529 986.130371,359.672913 939.281616,356.782043 
	C921.438416,355.681000 903.874817,352.648499 887.810547,344.029327 
	C867.035400,332.882599 855.338928,315.156372 850.711487,292.414886 
	C844.217407,260.499969 851.425171,230.291153 862.739929,200.762253 
	C877.448486,162.376602 900.937988,130.523270 934.688110,106.648666 
	C961.287170,87.832642 990.958740,77.448822 1023.415894,75.018097 
	C1046.891113,73.260033 1070.336304,73.312576 1093.658203,76.955933 
	C1111.837402,79.795906 1128.015381,86.459579 1139.052490,102.146057 
	C1147.068359,113.538559 1150.093750,126.534302 1150.570312,140.240585 
	C1150.696167,143.859528 1150.589355,147.486542 1150.589355,151.581207 
	C1122.145020,156.435959 1093.997559,161.240051 1065.381714,166.124084 
	C1065.102783,163.551682 1065.037720,161.110474 1064.549316,158.757095 
	C1062.039673,146.664078 1054.852417,138.768692 1042.767090,136.033554 
	C1020.550415,131.005569 1000.540161,136.387070 982.470032,149.772949 
	C968.469116,160.144424 958.971191,174.032990 951.784363,189.665939 
	C942.561096,209.728867 935.944824,230.523651 934.126648,252.667603 
	C931.977783,278.839905 946.332214,295.306000 972.569397,297.010773 
	C996.613098,298.572998 1018.080688,290.429474 1038.901489,279.764221 
	C1039.910889,279.247162 1040.772461,277.915436 1041.151489,276.779144 
	C1043.620850,269.375031 1045.937744,261.919983 1048.550171,253.709564 
	C1029.932739,253.709564 1011.734497,253.709564 992.545044,253.709564 
	C994.422974,247.516464 995.986633,242.218201 997.636597,236.946945 
	C1001.451721,224.758514 1005.338867,212.592514 1009.124695,200.395050 
	C1009.930115,197.799988 1010.881470,196.218079 1014.191284,196.228180 
	C1055.187622,196.353394 1096.184326,196.305161 1137.181030,196.315918 
	C1137.976196,196.316116 1138.771240,196.489532 1140.250610,196.661819 
	C1130.008057,229.159531 1119.864868,261.342255 1109.721680,293.524963 
	C1110.050537,293.732391 1110.379395,293.939819 1110.708252,294.147247 
	C1176.547974,242.207031 1242.387817,190.266815 1308.227661,138.326599 
	C1308.150513,137.962769 1308.073364,137.598938 1307.996216,137.235107 
	C1263.416992,137.235107 1218.837891,137.235107 1173.553223,137.235107 
	C1177.059937,125.900833 1180.250977,115.467140 1183.520630,105.058144 
	C1185.906860,97.461533 1188.555908,89.943321 1190.756592,82.294868 
	C1191.563843,79.489426 1192.836548,78.704765 1195.634155,78.732452 
	C1209.298340,78.867722 1222.964722,78.793587 1236.630249,78.793495 
	C1299.125244,78.793076 1361.620117,78.792648 1424.115112,78.792236 
	C1425.753296,78.792221 1427.391479,78.792229 1429.633789,78.792229 
	C1425.402466,92.281090 1420.552612,105.046822 1417.513428,118.229996 
	C1414.770020,130.129929 1407.629395,137.561584 1398.454468,144.729980 
	C1342.285278,188.615387 1286.426025,232.897491 1230.462036,277.045685 
	C1223.951904,282.181244 1217.432983,287.305725 1209.729736,293.371094 
	C1262.941284,293.371094 1314.717041,293.371094 1367.443115,293.371094 
	C1365.011597,301.031067 1362.833496,307.866241 1360.672241,314.706787 
	C1357.223877,325.621429 1353.541138,336.471252 1350.472412,347.491852 
	C1349.325806,351.608917 1347.376221,352.434509 1343.479614,352.428284 
	C1274.153076,352.317902 1204.826416,352.348083 1134.999756,352.347656 
z"/>
<path fill="#020202" opacity="1.000000" stroke="none" 
	d="
M637.980347,352.346497 
	C613.845825,352.346375 590.207214,352.346375 565.848633,352.346375 
	C568.848022,342.692841 571.641663,333.586700 574.505554,324.502747 
	C594.773193,260.215729 615.044067,195.929672 635.340210,131.651642 
	C640.537659,115.191383 645.753601,98.735672 651.204834,82.359024 
	C651.702148,80.865005 653.983704,78.939827 655.438904,78.937950 
	C707.094543,78.871407 758.751465,78.876488 810.405457,79.249695 
	C819.348450,79.314308 828.351135,80.630424 837.202576,82.108727 
	C865.655334,86.860687 880.405396,105.363823 877.602905,134.177048 
	C874.466797,166.420380 858.804077,191.831909 832.725586,210.952728 
	C818.649170,221.273621 802.871582,227.595535 785.752502,231.274460 
	C786.063232,231.879913 786.189453,232.562271 786.491821,232.652252 
	C801.443970,237.101181 809.075745,248.572144 813.726440,262.219604 
	C816.867859,271.437927 818.862000,281.084656 820.865967,290.645294 
	C824.820190,309.510895 828.433044,328.448181 832.158020,347.361542 
	C832.441284,348.799957 832.494141,350.283752 832.688293,352.058685 
	C801.065308,352.058685 769.647888,352.058685 738.062012,352.058685 
	C731.688477,323.212616 725.360352,294.512604 718.985657,265.822876 
	C718.411133,263.237091 717.679993,260.665863 716.776672,258.176727 
	C712.126587,245.362610 700.500671,238.723846 687.176941,241.494171 
	C685.944214,241.750473 684.640747,243.788300 684.167480,245.256058 
	C677.644043,265.487488 671.260254,285.763977 664.842773,306.029602 
	C660.479614,319.808105 655.933960,333.533142 651.870300,347.399445 
	C650.709045,351.361938 649.023376,352.968689 644.968750,352.403473 
	C642.843262,352.107147 640.642822,352.348236 637.980347,352.346497 
M732.514526,134.033722 
	C729.684570,134.033737 726.823608,134.297882 724.032166,133.970062 
	C720.131226,133.511917 718.653809,135.164230 717.605957,138.819809 
	C714.634705,149.185532 711.160889,159.406738 707.914612,169.694199 
	C705.847046,176.246078 703.832153,182.814606 701.663696,189.794022 
	C721.670349,189.592392 740.966370,191.030655 759.956787,186.018188 
	C774.944458,182.062241 784.277710,172.649536 787.900391,157.884598 
	C790.991943,145.284561 786.131897,138.352478 773.337952,135.578781 
	C772.041199,135.297638 770.725281,134.964584 769.410706,134.928040 
	C757.444336,134.595490 745.476318,134.323456 732.514526,134.033722 
z"/>
<path fill="#030303" opacity="1.000000" stroke="none" 
	d="
M1410.822266,184.781555 
	C1421.552368,150.660675 1432.224487,116.940590 1442.803101,83.191284 
	C1443.746704,80.181458 1444.855469,78.680588 1448.527710,78.687683 
	C1520.690063,78.827072 1592.852783,78.789223 1665.015503,78.799606 
	C1666.305176,78.799789 1667.594849,78.947884 1669.322632,79.053833 
	C1664.175537,95.384903 1659.141113,111.364555 1654.102417,127.342918 
	C1651.040161,137.053574 1651.037354,137.052704 1640.755493,137.052689 
	C1598.924438,137.052643 1557.093506,137.049637 1515.262451,137.059540 
	C1512.688965,137.060150 1510.172485,136.445801 1509.051270,140.239365 
	C1505.148926,153.442139 1500.858887,166.530319 1496.448364,180.511230 
	C1540.117310,180.511230 1583.284668,180.511230 1627.078491,180.511230 
	C1622.065552,196.427216 1617.362549,211.470734 1612.584717,226.490463 
	C1609.365479,236.610199 1609.318359,236.595169 1598.534546,236.595200 
	C1560.203369,236.595291 1521.871948,236.637939 1483.541138,236.524231 
	C1480.026001,236.513809 1478.350708,237.337555 1477.255859,240.999405 
	C1472.789307,255.939438 1467.875122,270.745483 1463.154907,285.610168 
	C1462.717773,286.987274 1462.486572,288.429810 1462.048828,290.321106 
	C1510.196533,290.321106 1557.970947,290.321106 1606.560669,290.321106 
	C1604.166138,298.126038 1601.999878,305.343475 1599.736206,312.530334 
	C1596.041504,324.260559 1592.065674,335.908356 1588.675415,347.724854 
	C1587.557251,351.622528 1585.746094,352.432709 1582.036377,352.424744 
	C1529.706177,352.312195 1477.375610,352.349152 1425.045166,352.350098 
	C1404.713013,352.350464 1384.380737,352.351440 1364.048584,352.352112 
	C1362.243042,352.352173 1360.437378,352.352142 1357.848755,352.352142 
	C1375.614258,296.198395 1393.176514,240.686432 1410.822266,184.781555 
z"/>
<path fill="#030303" opacity="1.000000" stroke="none" 
	d="
M254.825684,172.140915 
	C273.655029,177.383560 292.219421,182.202682 309.019440,191.798248 
	C328.125275,202.710861 338.344788,218.781830 337.413544,241.264221 
	C336.910004,253.421127 333.805328,264.935883 328.567474,275.808624 
	C309.784363,314.798737 278.761719,339.390442 237.439590,350.553436 
	C202.961594,359.867554 167.905457,359.754761 133.058716,352.125000 
	C102.713722,345.480865 86.452347,328.718445 84.265648,293.494110 
	C83.625504,283.182373 85.436676,272.718475 86.141151,262.069763 
	C114.124886,260.275726 140.971466,258.554596 168.481079,256.790985 
	C168.177490,259.597839 167.961639,261.827454 167.691757,264.050507 
	C166.039841,277.657532 167.441147,290.258057 180.375595,298.326355 
	C201.021713,311.205078 236.441498,300.531403 246.687393,278.529572 
	C252.044449,267.025940 249.018875,256.141052 237.400269,250.899750 
	C227.163879,246.281982 216.214890,243.066330 205.352707,240.052948 
	C186.862885,234.923492 168.550858,229.583084 152.227783,219.009979 
	C129.529114,204.307144 123.255737,183.340134 130.408463,158.235794 
	C140.319992,123.448685 164.348129,101.128387 196.694244,86.946350 
	C218.888168,77.215485 242.442154,74.462784 266.391418,74.030121 
	C285.778076,73.679886 305.014618,74.661247 323.581299,80.986580 
	C341.945312,87.242897 355.185883,98.521233 359.312164,118.351929 
	C361.717865,129.913666 361.156677,141.524536 358.801331,153.024384 
	C358.565948,154.173599 356.496429,155.677460 355.192291,155.766998 
	C337.922302,156.952744 320.637848,157.930862 303.354980,158.925323 
	C295.081635,159.401367 286.803986,159.802368 278.604279,160.233368 
	C278.604279,156.269501 278.691406,152.831970 278.588593,149.400116 
	C278.221558,137.149551 272.550964,129.412430 260.763550,126.680992 
	C246.274139,123.323402 232.143906,124.086716 220.202316,134.313934 
	C217.029358,137.031372 214.353775,140.741180 212.512772,144.514008 
	C208.993317,151.726532 211.269684,158.175034 218.633194,161.493805 
	C224.655380,164.208008 231.098251,166.057785 237.462189,167.923996 
	C243.040878,169.559937 248.769089,170.685959 254.825684,172.140915 
z"/>
<path fill="#020202" opacity="1.000000" stroke="none" 
	d="
M445.000153,78.794647 
	C510.636139,78.794647 575.772095,78.794647 641.554810,78.794647 
	C638.722473,87.935379 636.096863,96.479683 633.426575,105.009972 
	C629.558228,117.367523 625.572327,129.689194 621.830505,142.084702 
	C620.880188,145.232559 619.571594,146.450562 616.010742,146.422806 
	C590.513733,146.224091 565.014038,146.387360 539.516357,146.238144 
	C535.983154,146.217453 534.235901,147.186493 533.143555,150.668533 
	C512.769714,215.615082 492.209717,280.503418 471.959625,345.488373 
	C470.291138,350.842743 468.169128,352.602234 462.462585,352.507904 
	C438.970306,352.119781 415.467865,352.344574 391.969177,352.344055 
	C390.160187,352.343994 388.351227,352.344086 385.548828,352.344086 
	C407.290375,283.470306 428.826508,215.247086 450.568787,146.370956 
	C421.722534,146.370956 393.640472,146.370956 364.959839,146.370956 
	C369.569489,131.749054 373.984314,117.730476 378.409332,103.715111 
	C380.608124,96.750870 383.023529,89.846558 384.945404,82.807152 
	C385.818970,79.607620 387.309082,78.697548 390.504791,78.722885 
	C408.502289,78.865593 426.501495,78.793495 445.000153,78.794647 
z"/>
<path fill="#FBFBFB" opacity="1.000000" stroke="none" 
	d="
M733.011658,134.033722 
	C745.476318,134.323456 757.444336,134.595490 769.410706,134.928040 
	C770.725281,134.964584 772.041199,135.297638 773.337952,135.578781 
	C786.131897,138.352478 790.991943,145.284561 787.900391,157.884598 
	C784.277710,172.649536 774.944458,182.062241 759.956787,186.018188 
	C740.966370,191.030655 721.670349,189.592392 701.663696,189.794022 
	C703.832153,182.814606 705.847046,176.246078 707.914612,169.694199 
	C711.160889,159.406738 714.634705,149.185532 717.605957,138.819809 
	C718.653809,135.164230 720.131226,133.511917 724.032166,133.970062 
	C726.823608,134.297882 729.684570,134.033737 733.011658,134.033722 
z"/>
</svg>