<svg version="1.1" id="Layer_1" xmlns="http://www.w3.org/2000/svg" xmlns:xlink="http://www.w3.org/1999/xlink" x="0px" y="0px"
	 width="100%" viewBox="0 0 3000 3000" enable-background="new 0 0 3000 3000" xml:space="preserve">
<path fill="#FFFFFF" opacity="1.000000" stroke="none" 
	d="
M1610.000000,3002.000000 
	C1073.333374,3002.000000 537.666870,3002.000000 2.000216,3002.000000 
	C2.000144,2002.000244 2.000144,1002.000549 2.000072,2.000618 
	C1001.999512,2.000412 2001.999023,2.000412 3001.999023,2.000206 
	C3001.999268,1001.999329 3001.999268,2001.998657 3001.999512,3001.999023 
	C2538.333252,3002.000000 2074.666748,3002.000000 1610.000000,3002.000000 
M563.314087,1365.282715 
	C604.833923,1362.792725 646.353821,1360.302734 687.546875,1357.832397 
	C688.164551,1356.710083 688.663025,1356.160889 688.779907,1355.540039 
	C692.363403,1336.512329 694.122620,1317.360840 689.590942,1298.317505 
	C685.870667,1282.683472 678.941223,1268.452515 666.284729,1257.963867 
	C653.164246,1247.090576 637.901917,1240.238525 621.411865,1236.131104 
	C595.157715,1229.591553 568.430603,1227.516968 541.483276,1228.372925 
	C501.792023,1229.633911 462.789215,1234.368530 425.962372,1250.856323 
	C404.424042,1260.499390 385.107208,1273.249268 368.329071,1289.687866 
	C351.097778,1306.570557 338.092316,1326.549072 329.119110,1348.866699 
	C325.607178,1357.601562 323.013641,1367.164062 322.467072,1376.493896 
	C321.993134,1384.583862 321.943207,1392.925903 322.504425,1401.223633 
	C323.243469,1412.150513 326.745911,1421.647583 332.186646,1430.637939 
	C341.017609,1445.230591 353.957642,1455.081909 368.907562,1463.132080 
	C392.643585,1475.913330 418.032288,1483.958496 443.702820,1491.392212 
	C456.386780,1495.065063 469.237915,1498.167603 481.884613,1501.958008 
	C486.081787,1503.215942 489.715424,1506.286987 493.885620,1507.714111 
	C507.747437,1512.457886 515.982483,1524.654785 514.628601,1539.070801 
	C513.547424,1550.583496 508.164764,1560.098145 500.078308,1567.887451 
	C475.736053,1591.335449 446.679779,1596.834839 415.015961,1587.625854 
	C396.959747,1582.374390 387.174622,1568.740601 385.865326,1549.899902 
	C385.291412,1541.641602 386.145935,1533.279785 386.444916,1524.968262 
	C386.520386,1522.870361 386.953583,1520.785156 387.326904,1517.881470 
	C343.137909,1520.650024 300.022736,1523.351440 256.053925,1526.106323 
	C255.057510,1538.390381 253.754028,1549.988281 253.256180,1561.620728 
	C252.462021,1580.176392 253.124100,1598.802246 260.600189,1616.094360 
	C269.702850,1637.148682 283.682190,1653.365845 306.163788,1662.077515 
	C319.225220,1667.139038 332.435303,1671.609497 345.999207,1673.542725 
	C363.375153,1676.019165 381.124420,1676.135864 398.731049,1676.679565 
	C434.221405,1677.775879 469.143280,1674.548828 503.442596,1664.306641 
	C522.206543,1658.703613 539.519226,1650.659424 556.229248,1640.761719 
	C577.542480,1628.137085 595.929565,1612.328491 611.850037,1593.288086 
	C630.290710,1571.233643 643.723206,1546.758057 651.135559,1518.996582 
	C656.101440,1500.398071 657.027588,1481.700439 651.245422,1463.137939 
	C644.142029,1440.334229 628.243225,1425.107300 607.747864,1414.092285 
	C576.309631,1397.196167 541.961792,1388.831055 507.745728,1380.091431 
	C494.445129,1376.694092 480.832123,1374.384888 468.319305,1368.302246 
	C454.271271,1361.473389 450.782501,1352.636719 457.497162,1338.740845 
	C466.342102,1320.436768 482.330109,1312.152100 501.527344,1310.143433 
	C510.825958,1309.170532 520.840942,1309.279053 529.751221,1311.732544 
	C542.608276,1315.272705 554.367981,1320.738281 558.856384,1336.304443 
	C561.680969,1346.100586 561.692078,1355.055176 559.774902,1365.020142 
	C560.324097,1365.271240 560.873230,1365.522339 563.314087,1365.282715 
M2193.541504,1329.181885 
	C2193.541504,1329.181885 2193.798828,1329.566040 2193.468262,1330.957642 
	C2186.453857,1336.188354 2179.363770,1341.321289 2172.442627,1346.672974 
	C2162.279053,1354.531738 2152.253418,1362.569458 2142.136719,1370.489624 
	C2127.630371,1381.846069 2113.038818,1393.094604 2098.587891,1404.521362 
	C2085.199219,1415.108276 2072.015869,1425.955566 2058.616943,1436.529785 
	C2043.390991,1448.545776 2027.983765,1460.332031 2012.737061,1472.321777 
	C2002.617188,1480.279663 1992.727051,1488.530640 1982.578369,1496.450806 
	C1968.328857,1507.571289 1953.817383,1518.357910 1939.635986,1529.563110 
	C1925.424805,1540.791626 1911.571533,1552.472656 1897.371460,1563.715454 
	C1892.339111,1567.699829 1886.748291,1570.978882 1879.491333,1575.876343 
	C1896.165039,1523.101562 1912.010864,1472.947021 1927.987061,1422.380005 
	C1859.046997,1422.380005 1790.815430,1422.380005 1722.257935,1422.380005 
	C1717.445557,1437.529907 1713.184326,1452.589478 1707.854004,1467.260498 
	C1702.590820,1481.746582 1699.327881,1496.767578 1693.579102,1512.563843 
	C1723.684937,1512.563843 1752.687866,1512.563843 1782.438477,1512.563843 
	C1781.370239,1516.350586 1780.987793,1519.024048 1779.890015,1521.361572 
	C1775.944580,1529.762451 1772.451294,1538.221436 1771.612915,1547.641968 
	C1771.276245,1551.424561 1768.764526,1553.968506 1765.065063,1555.686035 
	C1747.247070,1563.958984 1729.444092,1572.286743 1710.255005,1576.935181 
	C1687.988037,1582.329102 1665.564331,1584.408203 1643.091187,1578.087891 
	C1618.215820,1571.091919 1603.805908,1553.446045 1601.623413,1527.811157 
	C1599.783203,1506.198730 1604.105469,1485.408081 1609.825562,1464.792603 
	C1618.419678,1433.819946 1629.835815,1404.079590 1648.978516,1377.897705 
	C1665.962036,1354.668945 1687.770020,1337.669312 1715.463013,1329.086548 
	C1735.899658,1322.752686 1756.708862,1321.343384 1777.411499,1327.913574 
	C1795.799316,1333.749023 1805.834351,1346.751953 1808.198120,1365.801392 
	C1808.519287,1368.390015 1808.864258,1370.975708 1809.321655,1374.518799 
	C1854.539673,1366.703857 1899.264893,1358.973999 1944.450806,1351.164551 
	C1945.921753,1337.224731 1944.690674,1323.712646 1941.695679,1310.478882 
	C1935.973145,1285.191650 1924.076538,1264.113525 1901.205811,1249.773193 
	C1884.184937,1239.100830 1865.491089,1234.526733 1846.249390,1232.082642 
	C1801.425293,1226.388672 1756.546997,1226.358765 1711.901001,1234.220947 
	C1688.077393,1238.416382 1665.008179,1244.890869 1643.088013,1255.676147 
	C1615.999634,1269.004517 1591.490845,1285.431885 1569.152710,1305.979980 
	C1542.613770,1330.392090 1521.512573,1358.600586 1504.525146,1389.946411 
	C1496.210693,1405.288696 1489.654541,1421.704346 1483.560913,1438.101929 
	C1474.174194,1463.360596 1466.933228,1489.212036 1465.964722,1516.486084 
	C1465.261841,1536.283203 1465.232422,1555.886841 1468.498169,1575.601929 
	C1471.055664,1591.041016 1476.799438,1605.138428 1484.745850,1617.910645 
	C1495.653809,1635.443481 1510.512939,1649.700684 1529.699585,1658.522705 
	C1547.690796,1666.795044 1566.399658,1672.045654 1586.291748,1674.101196 
	C1613.572754,1676.920410 1640.808472,1677.686279 1668.108398,1675.890137 
	C1691.785034,1674.332642 1715.150635,1670.707642 1738.202271,1664.750122 
	C1745.461670,1662.873901 1752.482544,1660.657227 1759.479736,1658.086426 
	C1770.927368,1653.880737 1782.762085,1650.609009 1793.915649,1645.753418 
	C1806.970581,1640.070190 1819.469849,1633.110352 1832.212158,1626.708374 
	C1841.085815,1622.250122 1849.916992,1617.702637 1858.872314,1613.414551 
	C1861.017944,1612.386963 1863.581787,1612.232544 1866.941162,1611.445068 
	C1860.556885,1631.541260 1854.617920,1650.235352 1848.440186,1669.681274 
	C1853.067627,1669.681274 1857.339111,1669.681152 1861.610718,1669.681152 
	C1967.593384,1669.681152 2073.576172,1669.681152 2179.558838,1669.681152 
	C2203.554932,1669.681152 2227.551758,1669.581421 2251.546387,1669.762695 
	C2256.587158,1669.800781 2258.794922,1668.462280 2260.425537,1663.114380 
	C2268.594727,1636.318115 2277.502686,1609.747437 2286.102295,1583.081421 
	C2286.760742,1581.039673 2287.039307,1578.875366 2287.724609,1575.702026 
	C2204.815918,1575.702026 2122.768799,1575.702026 2038.964966,1575.702026 
	C2042.969360,1572.386230 2045.426392,1570.261719 2047.975586,1568.253906 
	C2149.005371,1488.677002 2250.008789,1409.066650 2351.167725,1329.653809 
	C2357.240234,1324.886597 2361.044678,1319.526489 2363.214844,1312.167114 
	C2369.396729,1291.202271 2376.143555,1270.404053 2382.625488,1249.527100 
	C2383.951660,1245.255371 2385.093262,1240.926392 2386.549072,1235.819580 
	C2382.697998,1235.819580 2379.733154,1235.819580 2376.768066,1235.819580 
	C2257.787598,1235.819458 2138.806885,1235.819336 2019.826416,1235.819214 
	C2018.493286,1235.819214 2017.158569,1235.778320 2015.827271,1235.828369 
	C2010.671753,1236.021851 2007.600220,1238.595337 2006.124634,1243.404785 
	C2000.494751,1261.754761 1994.699219,1280.054077 1989.102051,1298.414185 
	C1986.198242,1307.939209 1983.580078,1317.551514 1980.482788,1328.343994 
	C1985.723145,1328.343994 1989.320068,1328.343994 1992.916992,1328.343994 
	C2056.239990,1328.343994 2119.562988,1328.335938 2182.885986,1328.364380 
	C2186.534912,1328.365967 2190.183594,1328.663086 2193.541504,1329.181885 
M1057.000488,1669.681274 
	C1085.657349,1669.681152 1114.314331,1669.709106 1142.971191,1669.662354 
	C1150.578857,1669.650024 1151.222900,1669.087402 1153.432251,1662.001953 
	C1161.128296,1637.320435 1168.808472,1612.634033 1176.503174,1587.952148 
	C1185.676147,1558.527954 1194.831177,1529.098022 1204.091797,1499.701538 
	C1204.746948,1497.621704 1206.206055,1495.795288 1207.292969,1493.847778 
	C1210.484009,1493.847778 1213.137817,1493.849609 1215.791626,1493.847534 
	C1238.661499,1493.829102 1250.581909,1502.659546 1256.646484,1525.113159 
	C1259.761719,1536.646851 1261.685791,1548.497925 1264.338013,1560.162354 
	C1267.537476,1574.233643 1270.933594,1588.260498 1274.253662,1602.304443 
	C1276.798462,1613.069824 1279.471680,1623.806274 1281.878296,1634.602295 
	C1284.408691,1645.953613 1286.689697,1657.360474 1289.161743,1669.133789 
	C1339.287720,1669.133789 1389.438721,1669.133789 1440.731445,1669.133789 
	C1438.625977,1658.425537 1436.659424,1648.444580 1434.701538,1638.461792 
	C1429.772583,1613.331055 1424.528687,1588.256348 1420.025879,1563.049438 
	C1416.645142,1544.123169 1411.373291,1526.052124 1402.160522,1509.030762 
	C1396.120239,1497.870850 1388.169556,1489.320068 1376.564575,1484.172363 
	C1373.483887,1482.805786 1370.520508,1481.174927 1365.941284,1478.883911 
	C1371.166016,1476.732422 1374.343872,1474.662476 1377.755493,1474.151123 
	C1392.387573,1471.957153 1405.265015,1465.464600 1418.152222,1458.766846 
	C1442.343018,1446.194214 1463.003052,1429.286011 1479.085205,1407.364136 
	C1500.068237,1378.761597 1512.693970,1346.731934 1511.962646,1310.865356 
	C1511.284790,1277.624878 1492.590210,1252.779053 1459.053223,1244.125122 
	C1439.116577,1238.980469 1418.771973,1236.237549 1398.210449,1236.170898 
	C1317.908081,1235.911011 1237.604736,1235.940308 1157.301758,1235.875732 
	C1156.648193,1235.875244 1155.994385,1236.062012 1154.749756,1236.251221 
	C1153.395386,1238.275391 1151.219971,1240.435425 1150.344849,1243.033447 
	C1147.353638,1251.912720 1144.901123,1260.971558 1142.093384,1269.914795 
	C1136.344238,1288.227295 1130.464844,1306.498657 1124.700195,1324.806396 
	C1117.752319,1346.872070 1110.924683,1368.975830 1103.938721,1391.029297 
	C1098.229126,1409.053589 1092.291016,1427.005615 1086.585083,1445.031006 
	C1078.626953,1470.171753 1070.820923,1495.360718 1062.893433,1520.511230 
	C1055.841675,1542.883301 1048.709839,1565.230103 1041.619873,1587.590210 
	C1034.587158,1609.769775 1027.558350,1631.950562 1020.538147,1654.134155 
	C1018.980835,1659.055298 1017.467285,1663.990234 1015.696289,1669.681274 
	C1029.716797,1669.681274 1042.359009,1669.681274 1057.000488,1669.681274 
M2698.999023,1328.341309 
	C2711.930908,1328.341309 2724.863037,1328.341309 2737.836426,1328.341309 
	C2747.634521,1297.345947 2757.199219,1267.089966 2766.918457,1236.344604 
	C2646.821045,1236.344604 2527.625000,1236.344604 2409.135986,1236.344604 
	C2364.506104,1381.361206 2319.240234,1525.433838 2272.205078,1669.166748 
	C2273.837158,1669.394043 2274.815186,1669.649536 2275.793457,1669.649780 
	C2393.780273,1669.671387 2511.767090,1669.642334 2629.753662,1669.782227 
	C2635.106445,1669.788574 2636.924316,1667.873291 2638.442383,1662.848755 
	C2646.688965,1635.556763 2655.475098,1608.427979 2664.061035,1581.238403 
	C2665.001465,1578.259888 2665.847900,1575.251831 2667.063232,1571.162598 
	C2590.317627,1571.162598 2514.821533,1571.162598 2437.762939,1571.162598 
	C2446.951172,1542.005005 2455.756348,1514.062256 2464.635986,1485.884155 
	C2534.333740,1485.884155 2602.916016,1485.884155 2671.827637,1485.884155 
	C2681.145996,1456.399048 2690.318848,1427.374268 2699.820312,1397.309570 
	C2630.757568,1397.309570 2562.582520,1397.309570 2493.113281,1397.309570 
	C2500.142578,1373.380005 2506.880615,1350.635010 2514.943604,1328.341309 
	C2576.372559,1328.341309 2636.686035,1328.341309 2698.999023,1328.341309 
M957.393738,1376.387207 
	C959.987549,1367.931152 962.482361,1359.442993 965.203857,1351.028198 
	C967.773132,1343.084106 967.877991,1343.045410 976.125488,1343.038818 
	C1012.772034,1343.009521 1049.418579,1343.025757 1086.065186,1343.025391 
	C1091.713379,1343.025269 1097.361572,1343.025269 1103.563599,1343.025269 
	C1114.308350,1307.238892 1126.363037,1272.185303 1136.706909,1236.356689 
	C1000.543213,1236.356689 865.698303,1236.356689 731.602905,1236.356689 
	C729.236877,1242.912109 726.939270,1248.693970 725.054626,1254.607422 
	C718.856628,1274.054810 712.186951,1293.385498 706.969910,1313.097534 
	C704.436707,1322.668823 697.986328,1331.551636 700.451050,1343.122559 
	C744.295532,1343.122559 788.128906,1343.122559 832.931946,1343.122559 
	C815.826538,1398.309448 799.290283,1452.523560 782.197998,1506.561768 
	C765.054871,1560.761108 747.357178,1614.784790 729.807190,1669.180908 
	C775.444092,1669.180908 819.633423,1669.180908 864.586731,1669.180908 
	C867.243103,1660.176880 869.667786,1651.347290 872.448853,1642.631470 
	C889.464844,1589.303955 906.632690,1536.024658 923.605957,1482.683472 
	C934.720581,1447.754028 945.592834,1412.747314 957.393738,1376.387207 
z"/>
<path fill="#020202" opacity="1.000000" stroke="none" 
	d="
M2193.832520,1328.822632 
	C2190.183594,1328.663086 2186.534912,1328.365967 2182.885986,1328.364380 
	C2119.562988,1328.335938 2056.239990,1328.343994 1992.916992,1328.343994 
	C1989.320068,1328.343994 1985.723145,1328.343994 1980.482788,1328.343994 
	C1983.580078,1317.551514 1986.198242,1307.939209 1989.102051,1298.414185 
	C1994.699219,1280.054077 2000.494751,1261.754761 2006.124634,1243.404785 
	C2007.600220,1238.595337 2010.671753,1236.021851 2015.827271,1235.828369 
	C2017.158569,1235.778320 2018.493286,1235.819214 2019.826416,1235.819214 
	C2138.806885,1235.819336 2257.787598,1235.819458 2376.768066,1235.819580 
	C2379.733154,1235.819580 2382.697998,1235.819580 2386.549072,1235.819580 
	C2385.093262,1240.926392 2383.951660,1245.255371 2382.625488,1249.527100 
	C2376.143555,1270.404053 2369.396729,1291.202271 2363.214844,1312.167114 
	C2361.044678,1319.526489 2357.240234,1324.886597 2351.167725,1329.653809 
	C2250.008789,1409.066650 2149.005371,1488.677002 2047.975586,1568.253906 
	C2045.426392,1570.261719 2042.969360,1572.386230 2038.964966,1575.702026 
	C2122.768799,1575.702026 2204.815918,1575.702026 2287.724609,1575.702026 
	C2287.039307,1578.875366 2286.760742,1581.039673 2286.102295,1583.081421 
	C2277.502686,1609.747437 2268.594727,1636.318115 2260.425537,1663.114380 
	C2258.794922,1668.462280 2256.587158,1669.800781 2251.546387,1669.762695 
	C2227.551758,1669.581421 2203.554932,1669.681152 2179.558838,1669.681152 
	C2073.576172,1669.681152 1967.593384,1669.681152 1861.610718,1669.681152 
	C1857.339111,1669.681152 1853.067627,1669.681274 1848.440186,1669.681274 
	C1854.617920,1650.235352 1860.556885,1631.541260 1866.941162,1611.445068 
	C1863.581787,1612.232544 1861.017944,1612.386963 1858.872314,1613.414551 
	C1849.916992,1617.702637 1841.085815,1622.250122 1832.212158,1626.708374 
	C1819.469849,1633.110352 1806.970581,1640.070190 1793.915649,1645.753418 
	C1782.762085,1650.609009 1770.927368,1653.880737 1759.479736,1658.086426 
	C1752.482544,1660.657227 1745.461670,1662.873901 1738.202271,1664.750122 
	C1715.150635,1670.707642 1691.785034,1674.332642 1668.108398,1675.890137 
	C1640.808472,1677.686279 1613.572754,1676.920410 1586.291748,1674.101196 
	C1566.399658,1672.045654 1547.690796,1666.795044 1529.699585,1658.522705 
	C1510.512939,1649.700684 1495.653809,1635.443481 1484.745850,1617.910645 
	C1476.799438,1605.138428 1471.055664,1591.041016 1468.498169,1575.601929 
	C1465.232422,1555.886841 1465.261841,1536.283203 1465.964722,1516.486084 
	C1466.933228,1489.212036 1474.174194,1463.360596 1483.560913,1438.101929 
	C1489.654541,1421.704346 1496.210693,1405.288696 1504.525146,1389.946411 
	C1521.512573,1358.600586 1542.613770,1330.392090 1569.152710,1305.979980 
	C1591.490845,1285.431885 1615.999634,1269.004517 1643.088013,1255.676147 
	C1665.008179,1244.890869 1688.077393,1238.416382 1711.901001,1234.220947 
	C1756.546997,1226.358765 1801.425293,1226.388672 1846.249390,1232.082642 
	C1865.491089,1234.526733 1884.184937,1239.100830 1901.205811,1249.773193 
	C1924.076538,1264.113525 1935.973145,1285.191650 1941.695679,1310.478882 
	C1944.690674,1323.712646 1945.921753,1337.224731 1944.450806,1351.164551 
	C1899.264893,1358.973999 1854.539673,1366.703857 1809.321655,1374.518799 
	C1808.864258,1370.975708 1808.519287,1368.390015 1808.198120,1365.801392 
	C1805.834351,1346.751953 1795.799316,1333.749023 1777.411499,1327.913574 
	C1756.708862,1321.343384 1735.899658,1322.752686 1715.463013,1329.086548 
	C1687.770020,1337.669312 1665.962036,1354.668945 1648.978516,1377.897705 
	C1629.835815,1404.079590 1618.419678,1433.819946 1609.825562,1464.792603 
	C1604.105469,1485.408081 1599.783203,1506.198730 1601.623413,1527.811157 
	C1603.805908,1553.446045 1618.215820,1571.091919 1643.091187,1578.087891 
	C1665.564331,1584.408203 1687.988037,1582.329102 1710.255005,1576.935181 
	C1729.444092,1572.286743 1747.247070,1563.958984 1765.065063,1555.686035 
	C1768.764526,1553.968506 1771.276245,1551.424561 1771.612915,1547.641968 
	C1772.451294,1538.221436 1775.944580,1529.762451 1779.890015,1521.361572 
	C1780.987793,1519.024048 1781.370239,1516.350586 1782.438477,1512.563843 
	C1752.687866,1512.563843 1723.684937,1512.563843 1693.579102,1512.563843 
	C1699.327881,1496.767578 1702.590820,1481.746582 1707.854004,1467.260498 
	C1713.184326,1452.589478 1717.445557,1437.529907 1722.257935,1422.380005 
	C1790.815430,1422.380005 1859.046997,1422.380005 1927.987061,1422.380005 
	C1912.010864,1472.947021 1896.165039,1523.101562 1879.491333,1575.876343 
	C1886.748291,1570.978882 1892.339111,1567.699829 1897.371460,1563.715454 
	C1911.571533,1552.472656 1925.424805,1540.791626 1939.635986,1529.563110 
	C1953.817383,1518.357910 1968.328857,1507.571289 1982.578369,1496.450806 
	C1992.727051,1488.530640 2002.617188,1480.279663 2012.737061,1472.321777 
	C2027.983765,1460.332031 2043.390991,1448.545776 2058.616943,1436.529785 
	C2072.015869,1425.955566 2085.199219,1415.108276 2098.587891,1404.521362 
	C2113.038818,1393.094604 2127.630371,1381.846069 2142.136719,1370.489624 
	C2152.253418,1362.569458 2162.279053,1354.531738 2172.442627,1346.672974 
	C2179.363770,1341.321289 2186.453857,1336.188354 2194.047363,1330.349609 
	C2194.826416,1329.544067 2195.026123,1329.346436 2195.226074,1329.148804 
	C2195.027832,1328.949951 2194.855957,1328.638184 2194.624023,1328.583984 
	C2194.391357,1328.529663 2194.098877,1328.732544 2193.832520,1328.822632 
z"/>
<path fill="#020202" opacity="1.000000" stroke="none" 
	d="
M1056.000732,1669.681274 
	C1042.359009,1669.681274 1029.716797,1669.681274 1015.696289,1669.681274 
	C1017.467285,1663.990234 1018.980835,1659.055298 1020.538147,1654.134155 
	C1027.558350,1631.950562 1034.587158,1609.769775 1041.619873,1587.590210 
	C1048.709839,1565.230103 1055.841675,1542.883301 1062.893433,1520.511230 
	C1070.820923,1495.360718 1078.626953,1470.171753 1086.585083,1445.031006 
	C1092.291016,1427.005615 1098.229126,1409.053589 1103.938721,1391.029297 
	C1110.924683,1368.975830 1117.752319,1346.872070 1124.700195,1324.806396 
	C1130.464844,1306.498657 1136.344238,1288.227295 1142.093384,1269.914795 
	C1144.901123,1260.971558 1147.353638,1251.912720 1150.344849,1243.033447 
	C1151.219971,1240.435425 1153.395386,1238.275391 1154.749756,1236.251221 
	C1155.994385,1236.062012 1156.648193,1235.875244 1157.301758,1235.875732 
	C1237.604736,1235.940308 1317.908081,1235.911011 1398.210449,1236.170898 
	C1418.771973,1236.237549 1439.116577,1238.980469 1459.053223,1244.125122 
	C1492.590210,1252.779053 1511.284790,1277.624878 1511.962646,1310.865356 
	C1512.693970,1346.731934 1500.068237,1378.761597 1479.085205,1407.364136 
	C1463.003052,1429.286011 1442.343018,1446.194214 1418.152222,1458.766846 
	C1405.265015,1465.464600 1392.387573,1471.957153 1377.755493,1474.151123 
	C1374.343872,1474.662476 1371.166016,1476.732422 1365.941284,1478.883911 
	C1370.520508,1481.174927 1373.483887,1482.805786 1376.564575,1484.172363 
	C1388.169556,1489.320068 1396.120239,1497.870850 1402.160522,1509.030762 
	C1411.373291,1526.052124 1416.645142,1544.123169 1420.025879,1563.049438 
	C1424.528687,1588.256348 1429.772583,1613.331055 1434.701538,1638.461792 
	C1436.659424,1648.444580 1438.625977,1658.425537 1440.731445,1669.133789 
	C1389.438721,1669.133789 1339.287720,1669.133789 1289.161743,1669.133789 
	C1286.689697,1657.360474 1284.408691,1645.953613 1281.878296,1634.602295 
	C1279.471680,1623.806274 1276.798462,1613.069824 1274.253662,1602.304443 
	C1270.933594,1588.260498 1267.537476,1574.233643 1264.338013,1560.162354 
	C1261.685791,1548.497925 1259.761719,1536.646851 1256.646484,1525.113159 
	C1250.581909,1502.659546 1238.661499,1493.829102 1215.791626,1493.847534 
	C1213.137817,1493.849609 1210.484009,1493.847778 1207.292969,1493.847778 
	C1206.206055,1495.795288 1204.746948,1497.621704 1204.091797,1499.701538 
	C1194.831177,1529.098022 1185.676147,1558.527954 1176.503174,1587.952148 
	C1168.808472,1612.634033 1161.128296,1637.320435 1153.432251,1662.001953 
	C1151.222900,1669.087402 1150.578857,1669.650024 1142.971191,1669.662354 
	C1114.314331,1669.709106 1085.657349,1669.681152 1056.000732,1669.681274 
M1314.974854,1323.667969 
	C1296.763794,1323.667969 1278.552734,1323.667969 1260.370483,1323.667969 
	C1251.018677,1353.401611 1241.996704,1382.086060 1232.692017,1411.669556 
	C1240.377563,1411.669556 1246.359253,1411.581055 1252.337646,1411.685059 
	C1276.339844,1412.102783 1300.218506,1411.741943 1323.797974,1406.043945 
	C1348.276123,1400.128540 1363.409546,1384.975220 1369.385864,1360.956787 
	C1374.134766,1341.870972 1366.093750,1329.628174 1346.743652,1326.178833 
	C1336.977417,1324.437866 1326.898804,1324.449585 1314.974854,1323.667969 
z"/>
<path fill="#010101" opacity="1.000000" stroke="none" 
	d="
M2697.999268,1328.341309 
	C2636.686035,1328.341309 2576.372559,1328.341309 2514.943604,1328.341309 
	C2506.880615,1350.635010 2500.142578,1373.380005 2493.113281,1397.309570 
	C2562.582520,1397.309570 2630.757568,1397.309570 2699.820312,1397.309570 
	C2690.318848,1427.374268 2681.145996,1456.399048 2671.827637,1485.884155 
	C2602.916016,1485.884155 2534.333740,1485.884155 2464.635986,1485.884155 
	C2455.756348,1514.062256 2446.951172,1542.005005 2437.762939,1571.162598 
	C2514.821533,1571.162598 2590.317627,1571.162598 2667.063232,1571.162598 
	C2665.847900,1575.251831 2665.001465,1578.259888 2664.061035,1581.238403 
	C2655.475098,1608.427979 2646.688965,1635.556763 2638.442383,1662.848755 
	C2636.924316,1667.873291 2635.106445,1669.788574 2629.753662,1669.782227 
	C2511.767090,1669.642334 2393.780273,1669.671387 2275.793457,1669.649780 
	C2274.815186,1669.649536 2273.837158,1669.394043 2272.205078,1669.166748 
	C2319.240234,1525.433838 2364.506104,1381.361206 2409.135986,1236.344604 
	C2527.625000,1236.344604 2646.821045,1236.344604 2766.918457,1236.344604 
	C2757.199219,1267.089966 2747.634521,1297.345947 2737.836426,1328.341309 
	C2724.863037,1328.341309 2711.930908,1328.341309 2697.999268,1328.341309 
z"/>
<path fill="#020202" opacity="1.000000" stroke="none" 
	d="
M560.195740,1364.565430 
	C561.692078,1355.055176 561.680969,1346.100586 558.856384,1336.304443 
	C554.367981,1320.738281 542.608276,1315.272705 529.751221,1311.732544 
	C520.840942,1309.279053 510.825958,1309.170532 501.527344,1310.143433 
	C482.330109,1312.152100 466.342102,1320.436768 457.497162,1338.740845 
	C450.782501,1352.636719 454.271271,1361.473389 468.319305,1368.302246 
	C480.832123,1374.384888 494.445129,1376.694092 507.745728,1380.091431 
	C541.961792,1388.831055 576.309631,1397.196167 607.747864,1414.092285 
	C628.243225,1425.107300 644.142029,1440.334229 651.245422,1463.137939 
	C657.027588,1481.700439 656.101440,1500.398071 651.135559,1518.996582 
	C643.723206,1546.758057 630.290710,1571.233643 611.850037,1593.288086 
	C595.929565,1612.328491 577.542480,1628.137085 556.229248,1640.761719 
	C539.519226,1650.659424 522.206543,1658.703613 503.442596,1664.306641 
	C469.143280,1674.548828 434.221405,1677.775879 398.731049,1676.679565 
	C381.124420,1676.135864 363.375153,1676.019165 345.999207,1673.542725 
	C332.435303,1671.609497 319.225220,1667.139038 306.163788,1662.077515 
	C283.682190,1653.365845 269.702850,1637.148682 260.600189,1616.094360 
	C253.124100,1598.802246 252.462021,1580.176392 253.256180,1561.620728 
	C253.754028,1549.988281 255.057510,1538.390381 256.053925,1526.106323 
	C300.022736,1523.351440 343.137909,1520.650024 387.326904,1517.881470 
	C386.953583,1520.785156 386.520386,1522.870361 386.444916,1524.968262 
	C386.145935,1533.279785 385.291412,1541.641602 385.865326,1549.899902 
	C387.174622,1568.740601 396.959747,1582.374390 415.015961,1587.625854 
	C446.679779,1596.834839 475.736053,1591.335449 500.078308,1567.887451 
	C508.164764,1560.098145 513.547424,1550.583496 514.628601,1539.070801 
	C515.982483,1524.654785 507.747437,1512.457886 493.885620,1507.714111 
	C489.715424,1506.286987 486.081787,1503.215942 481.884613,1501.958008 
	C469.237915,1498.167603 456.386780,1495.065063 443.702820,1491.392212 
	C418.032288,1483.958496 392.643585,1475.913330 368.907562,1463.132080 
	C353.957642,1455.081909 341.017609,1445.230591 332.186646,1430.637939 
	C326.745911,1421.647583 323.243469,1412.150513 322.504425,1401.223633 
	C321.943207,1392.925903 321.993134,1384.583862 322.467072,1376.493896 
	C323.013641,1367.164062 325.607178,1357.601562 329.119110,1348.866699 
	C338.092316,1326.549072 351.097778,1306.570557 368.329071,1289.687866 
	C385.107208,1273.249268 404.424042,1260.499390 425.962372,1250.856323 
	C462.789215,1234.368530 501.792023,1229.633911 541.483276,1228.372925 
	C568.430603,1227.516968 595.157715,1229.591553 621.411865,1236.131104 
	C637.901917,1240.238525 653.164246,1247.090576 666.284729,1257.963867 
	C678.941223,1268.452515 685.870667,1282.683472 689.590942,1298.317505 
	C694.122620,1317.360840 692.363403,1336.512329 688.779907,1355.540039 
	C688.663025,1356.160889 688.164551,1356.710083 687.546875,1357.832397 
	C646.353821,1360.302734 604.833923,1362.792725 562.092407,1365.194824 
	C560.870667,1365.106934 560.195740,1364.565430 560.195740,1364.565430 
z"/>
<path fill="#020202" opacity="1.000000" stroke="none" 
	d="
M956.983643,1377.081299 
	C945.592834,1412.747314 934.720581,1447.754028 923.605957,1482.683472 
	C906.632690,1536.024658 889.464844,1589.303955 872.448853,1642.631470 
	C869.667786,1651.347290 867.243103,1660.176880 864.586731,1669.180908 
	C819.633423,1669.180908 775.444092,1669.180908 729.807190,1669.180908 
	C747.357178,1614.784790 765.054871,1560.761108 782.197998,1506.561768 
	C799.290283,1452.523560 815.826538,1398.309448 832.931946,1343.122559 
	C788.128906,1343.122559 744.295532,1343.122559 700.451050,1343.122559 
	C697.986328,1331.551636 704.436707,1322.668823 706.969910,1313.097534 
	C712.186951,1293.385498 718.856628,1274.054810 725.054626,1254.607422 
	C726.939270,1248.693970 729.236877,1242.912109 731.602905,1236.356689 
	C865.698303,1236.356689 1000.543213,1236.356689 1136.706909,1236.356689 
	C1126.363037,1272.185303 1114.308350,1307.238892 1103.563599,1343.025269 
	C1097.361572,1343.025269 1091.713379,1343.025269 1086.065186,1343.025391 
	C1049.418579,1343.025757 1012.772034,1343.009521 976.125488,1343.038818 
	C967.877991,1343.045410 967.773132,1343.084106 965.203857,1351.028198 
	C962.482361,1359.442993 959.987549,1367.931152 956.983643,1377.081299 
z"/>
<path fill="#CFCFCF" opacity="1.000000" stroke="none" 
	d="
M2193.687012,1329.002197 
	C2194.098877,1328.732544 2194.391357,1328.529663 2194.624023,1328.583984 
	C2194.855957,1328.638184 2195.027832,1328.949951 2195.226074,1329.148804 
	C2195.026123,1329.346436 2194.826416,1329.544067 2194.212646,1329.653809 
	C2193.798828,1329.566040 2193.541504,1329.181885 2193.687012,1329.002197 
z"/>
<path fill="#CFCFCF" opacity="1.000000" stroke="none" 
	d="
M561.146484,1365.440186 
	C560.873230,1365.522339 560.324097,1365.271240 559.985352,1364.792725 
	C560.195740,1364.565430 560.870667,1365.106934 561.146484,1365.440186 
z"/>
<path fill="#FCFCFC" opacity="1.000000" stroke="none" 
	d="
M1315.968140,1323.668335 
	C1326.898804,1324.449585 1336.977417,1324.437866 1346.743652,1326.178833 
	C1366.093750,1329.628174 1374.134766,1341.870972 1369.385864,1360.956787 
	C1363.409546,1384.975220 1348.276123,1400.128540 1323.797974,1406.043945 
	C1300.218506,1411.741943 1276.339844,1412.102783 1252.337646,1411.685059 
	C1246.359253,1411.581055 1240.377563,1411.669556 1232.692017,1411.669556 
	C1241.996704,1382.086060 1251.018677,1353.401611 1260.370483,1323.667969 
	C1278.552734,1323.667969 1296.763794,1323.667969 1315.968140,1323.668335 
z"/>
</svg>