<svg version="1.1" id="Layer_1" xmlns="http://www.w3.org/2000/svg" xmlns:xlink="http://www.w3.org/1999/xlink" x="0px" y="0px"
	 width="100%" viewBox="0 0 1967 510" enable-background="new 0 0 1967 510" xml:space="preserve">
<path fill="#010101" opacity="1.000000" stroke="none" 
	d="
M1968.000000,4.000000 
	C1968.000000,172.976913 1968.000000,341.953827 1968.000000,510.965363 
	C1312.446045,510.965363 656.891968,510.965363 1.000000,510.965363 
	C1.000000,342.302582 1.000000,173.604919 1.443604,4.453741 
	C657.258118,4.000144 1312.629028,4.000072 1968.000000,4.000000 
M1336.112183,162.373596 
	C1335.948853,161.393921 1335.727173,160.419952 1335.630737,159.433731 
	C1332.581665,128.273560 1314.608276,105.732742 1284.264038,98.029549 
	C1269.564697,94.297966 1254.104736,93.204567 1238.905029,91.883591 
	C1214.086060,89.726616 1189.272461,90.944809 1164.786621,95.500221 
	C1107.266113,106.201515 1063.078979,137.623581 1029.673462,184.729828 
	C1005.039001,219.467560 990.284302,258.354950 985.269714,300.647705 
	C982.676331,322.520599 984.240540,344.241821 993.120422,364.831696 
	C1005.689636,393.976074 1029.221558,409.362122 1059.176636,415.663818 
	C1099.767700,424.203033 1140.351807,422.134460 1180.552612,412.923248 
	C1213.653320,405.338928 1243.685669,390.069489 1273.312500,374.009064 
	C1275.274658,372.945312 1277.242676,371.892151 1280.330444,370.229828 
	C1275.439697,385.842224 1270.963745,400.130676 1266.255005,415.162292 
	C1277.235596,415.162292 1287.514893,415.162262 1297.794189,415.162262 
	C1385.619873,415.162445 1473.445557,415.131927 1561.271118,415.257904 
	C1565.456421,415.263885 1567.398682,414.115326 1568.602173,410.007629 
	C1572.663452,396.146545 1577.134888,382.405640 1581.454712,368.620331 
	C1583.713867,361.411011 1585.983887,354.205017 1588.551270,346.036194 
	C1527.400391,346.036194 1467.276855,346.036194 1405.822144,346.036194 
	C1408.245605,344.023285 1409.487793,342.947113 1410.775635,341.928558 
	C1427.099731,329.017944 1443.417114,316.098633 1459.761963,303.214325 
	C1519.127197,256.417694 1578.514160,209.648712 1637.815430,162.771454 
	C1639.607666,161.354828 1641.056274,159.028015 1641.794556,156.832794 
	C1645.869751,144.714645 1649.708984,132.516449 1653.559326,120.323631 
	C1655.983765,112.646042 1658.286011,104.929893 1660.748291,96.887375 
	C1659.055908,96.740562 1658.088257,96.583221 1657.120483,96.583107 
	C1567.461670,96.572273 1477.802734,96.603523 1388.144043,96.468033 
	C1384.411621,96.462395 1383.234741,98.158646 1382.328857,101.051254 
	C1377.764038,115.626564 1373.146118,130.185303 1368.590210,144.763428 
	C1366.545166,151.307190 1364.601318,157.882614 1362.418335,165.081451 
	C1415.218872,165.081451 1467.103394,165.081451 1520.190308,165.081451 
	C1442.836060,226.074905 1366.440186,286.312836 1290.044189,346.550751 
	C1289.741089,346.249451 1289.437866,345.948120 1289.134766,345.646820 
	C1300.887451,308.381653 1312.640137,271.116486 1324.493652,233.531738 
	C1323.076294,233.377869 1322.284546,233.216888 1321.492676,233.216660 
	C1273.163574,233.202682 1224.834473,233.226700 1176.505493,233.139130 
	C1173.557129,233.133774 1172.508423,234.333282 1171.721069,236.940308 
	C1168.892578,246.306763 1165.793457,255.591110 1162.859375,264.926208 
	C1159.243652,276.429993 1155.690918,287.953583 1151.926147,300.062988 
	C1173.808838,300.062988 1195.085938,300.062988 1216.958008,300.062988 
	C1216.174072,302.840485 1215.556152,305.030212 1214.937744,307.219818 
	C1208.368774,330.481689 1208.335938,330.402435 1185.980591,339.654633 
	C1164.489746,348.549042 1142.428467,353.195526 1119.172852,348.885223 
	C1098.755737,345.101105 1085.929443,329.983246 1084.796509,309.363617 
	C1084.065430,296.057251 1086.193237,283.174591 1089.477173,270.411041 
	C1095.504395,246.985138 1103.399170,224.254440 1117.441162,204.292450 
	C1137.813843,175.330734 1165.000977,159.147583 1201.408936,161.980194 
	C1216.652588,163.166168 1229.162842,169.191345 1234.356323,184.981339 
	C1235.777100,189.301346 1236.232666,193.938828 1237.156860,198.558975 
	C1248.693604,196.609573 1259.837646,194.731949 1270.979614,192.842621 
	C1291.667480,189.334641 1312.349609,185.791626 1333.047363,182.344147 
	C1335.588013,181.920975 1336.962158,180.986816 1336.791382,178.189117 
	C1336.488159,173.223694 1336.355957,168.247864 1336.112183,162.373596 
M914.500305,96.569641 
	C863.841125,96.569313 813.181580,96.647774 762.523193,96.442360 
	C757.651794,96.422607 755.631836,97.983803 754.260437,102.485840 
	C747.392822,125.031624 740.247009,147.492920 733.158447,169.971100 
	C721.045227,208.382812 708.914062,246.788895 696.767212,285.190002 
	C685.656250,320.316376 674.500916,355.428711 663.396851,390.557251 
	C660.874023,398.538177 658.482056,406.560486 656.000977,414.658051 
	C657.176025,414.927246 657.655640,415.132996 658.135315,415.133301 
	C689.130554,415.152954 720.125793,415.139648 751.120972,415.190857 
	C753.660034,415.195068 754.823792,414.367371 755.640076,411.765167 
	C767.850342,372.841248 780.237488,333.972839 792.517090,295.070587 
	C795.419922,285.874207 795.308472,285.839050 804.987854,286.166199 
	C819.222595,286.647308 827.237915,292.411896 831.455688,305.914062 
	C833.627808,312.867554 835.146057,320.036499 836.739502,327.157379 
	C841.233704,347.242004 845.593567,367.356659 850.047974,387.450287 
	C852.085571,396.641510 854.220825,405.811066 856.289429,414.892456 
	C893.520752,414.892456 930.129944,414.892456 967.146301,414.892456 
	C966.404724,410.856506 965.762451,407.139557 965.035156,403.439362 
	C961.160339,383.724426 957.498413,363.963562 953.289185,344.320068 
	C950.689209,332.186432 947.979126,319.983978 943.993286,308.263153 
	C939.033569,293.678802 930.670898,281.443695 914.868652,276.377014 
	C914.387756,276.222839 914.092651,275.489166 913.230164,274.441925 
	C917.626892,273.105469 921.530212,271.993652 925.385864,270.735657 
	C977.814636,253.629608 1010.349854,218.846588 1018.879395,163.689865 
	C1023.127747,136.217499 1010.544067,109.005753 977.573792,101.686745 
	C957.085144,97.138489 936.326965,96.620689 914.500305,96.569641 
M1726.500244,96.569450 
	C1711.500854,96.568748 1696.500977,96.641548 1681.502686,96.508034 
	C1678.337402,96.479851 1676.899536,97.399872 1675.910889,100.612442 
	C1667.668213,127.397522 1659.221313,154.120010 1650.773804,180.841690 
	C1641.177734,211.196701 1631.502808,241.526886 1621.888062,271.876068 
	C1609.716553,310.296326 1597.562500,348.722168 1585.420288,387.151794 
	C1582.540039,396.267914 1579.737793,405.408630 1576.786255,414.902466 
	C1666.115967,414.902466 1754.886597,414.902466 1843.890869,414.902466 
	C1851.456177,390.945221 1858.966919,367.161377 1866.745117,342.530212 
	C1810.192383,342.530212 1754.645264,342.530212 1698.633301,342.530212 
	C1699.031738,340.592346 1699.178955,339.300171 1699.565308,338.083923 
	C1704.942871,321.157379 1710.599487,304.313599 1715.605835,287.278534 
	C1717.114136,282.146545 1719.030273,280.315247 1724.628052,280.348083 
	C1771.291138,280.621613 1817.956665,280.483063 1864.621216,280.571686 
	C1868.216553,280.578522 1870.140015,279.957825 1871.264404,275.881409 
	C1874.168213,265.354156 1877.921997,255.063873 1881.221069,244.642471 
	C1884.259644,235.044357 1887.148193,225.398758 1890.397339,214.814545 
	C1839.568726,214.814545 1789.440186,214.814545 1739.058594,214.814545 
	C1739.226318,213.314346 1739.192017,212.636826 1739.385620,212.032333 
	C1743.833252,198.148209 1748.604492,184.357285 1752.601440,170.345337 
	C1753.892212,165.820541 1755.759033,164.808441 1760.105835,164.820999 
	C1810.936768,164.967941 1861.768555,164.834274 1912.598877,165.057205 
	C1917.271606,165.077682 1918.884155,163.301300 1920.076294,159.358734 
	C1923.915649,146.660492 1928.028564,134.045197 1931.991089,121.383896 
	C1934.503296,113.357018 1936.935547,105.305122 1939.616943,96.569443 
	C1868.415527,96.569443 1797.957886,96.569443 1726.500244,96.569450 
M346.288727,222.134109 
	C326.154846,215.761887 306.035675,209.342575 285.881226,203.036102 
	C274.802368,199.569443 263.404358,196.953323 252.635864,192.718796 
	C244.211456,189.406021 241.988113,181.470383 245.713501,173.160187 
	C246.921066,170.466461 248.543823,167.859695 250.424164,165.582703 
	C263.080292,150.256668 294.476501,145.740570 311.105377,156.778687 
	C316.832703,160.580429 320.313660,166.039078 320.894104,172.792511 
	C321.425537,178.975845 321.006866,185.240829 321.006866,191.767136 
	C322.716644,191.767136 323.859467,191.824554 324.995148,191.758759 
	C354.088440,190.073425 383.177887,188.317535 412.277863,186.757553 
	C415.636749,186.577469 416.128967,184.609283 416.298492,182.256699 
	C416.979004,172.812637 418.431122,163.308548 417.918701,153.918289 
	C416.859528,134.509140 409.240692,118.274315 392.129852,107.478424 
	C381.965973,101.065643 370.803589,97.380600 359.158905,95.058006 
	C335.784363,90.395859 312.171204,90.267227 288.529816,92.098129 
	C267.365448,93.737213 246.583679,97.389404 227.001709,106.047295 
	C190.018036,122.399101 162.434937,147.806458 150.037567,187.350677 
	C145.199707,202.782150 144.361679,218.456299 151.218170,233.639832 
	C157.589752,247.749542 168.911148,257.087738 182.183701,264.356934 
	C200.913162,274.614838 221.278442,280.200836 241.715195,285.809021 
	C253.354858,289.003174 264.733917,293.345276 275.913757,297.940613 
	C282.374207,300.596069 286.102905,306.320923 287.157715,313.406708 
	C288.901337,325.119812 283.408142,333.984680 275.514954,341.662872 
	C262.333588,354.485168 246.042679,358.794403 228.221146,357.440674 
	C202.704773,355.502380 191.139557,341.344208 193.530319,315.869751 
	C193.895859,311.974854 194.150665,308.069580 194.455353,304.185822 
	C193.642807,303.956665 193.164429,303.683319 192.704819,303.711884 
	C162.789612,305.570496 132.879120,307.507751 102.957733,309.259399 
	C99.570061,309.457733 98.822784,311.276245 98.368958,313.928467 
	C95.979065,327.895142 94.237846,341.858032 96.660278,356.047516 
	C100.868988,380.700226 111.939224,400.205444 136.501251,409.621765 
	C141.928696,411.702484 147.501404,413.514404 153.140488,414.912720 
	C171.681793,419.510162 190.628723,420.672394 209.637131,420.736481 
	C239.679520,420.837799 269.283783,417.624786 297.016968,405.229126 
	C344.228088,384.127594 377.744415,350.538177 389.284515,298.716888 
	C394.939514,273.323029 388.975098,250.674973 367.136627,234.357117 
	C360.923431,229.714615 353.709900,226.410889 346.288727,222.134109 
M596.648560,250.203796 
	C604.032166,226.949753 611.544067,203.734894 618.673401,180.403137 
	C619.863342,176.508743 621.617737,175.650482 625.315918,175.666855 
	C655.148560,175.798889 684.982483,175.671722 714.814758,175.840286 
	C718.706055,175.862274 720.286987,174.529114 721.389343,170.914703 
	C726.660400,153.632446 732.224792,136.439774 737.658691,119.207001 
	C739.967468,111.885010 742.212097,104.542801 744.683350,96.572884 
	C742.004089,96.572884 740.200989,96.572906 738.397888,96.572876 
	C670.564819,96.571571 602.731689,96.570038 534.898621,96.569038 
	C507.232056,96.568634 479.565430,96.603821 451.899109,96.522369 
	C448.729980,96.513046 446.996765,97.002487 445.898438,100.643616 
	C440.097809,119.873383 433.853729,138.969238 427.781433,158.117279 
	C425.999634,163.735840 424.276794,169.373108 422.287598,175.771637 
	C455.752930,175.771637 488.318726,175.771637 521.775452,175.771637 
	C508.966858,216.195038 496.377991,255.825912 483.854248,295.477356 
	C471.326965,335.140076 458.864777,374.823334 446.258392,414.864929 
	C479.341217,414.864929 511.938690,414.864929 544.467834,414.864929 
	C544.762085,414.127716 544.973389,413.681519 545.121582,413.215240 
	C554.816467,382.708832 564.544312,352.212799 574.184082,321.688965 
	C581.626343,298.123230 588.957520,274.522400 596.648560,250.203796 
z"/>
<path fill="#232323" opacity="1.000000" stroke="none" 
	d="
M1968.000000,3.500061 
	C1312.629028,4.000072 657.258118,4.000144 1.443604,4.000108 
	C1.000000,3.000253 1.000000,2.000507 1.000000,1.000380 
	C655.167236,1.000000 1309.334473,0.998029 1963.501709,1.141029 
	C1964.789917,1.141310 1968.128540,-1.327777 1968.000000,3.500061 
z"/>
<path fill="#FDFDFD" opacity="1.000000" stroke="none" 
	d="
M1336.132080,162.824982 
	C1336.355957,168.247864 1336.488159,173.223694 1336.791382,178.189117 
	C1336.962158,180.986816 1335.588013,181.920975 1333.047363,182.344147 
	C1312.349609,185.791626 1291.667480,189.334641 1270.979614,192.842621 
	C1259.837646,194.731949 1248.693604,196.609573 1237.156860,198.558975 
	C1236.232666,193.938828 1235.777100,189.301346 1234.356323,184.981339 
	C1229.162842,169.191345 1216.652588,163.166168 1201.408936,161.980194 
	C1165.000977,159.147583 1137.813843,175.330734 1117.441162,204.292450 
	C1103.399170,224.254440 1095.504395,246.985138 1089.477173,270.411041 
	C1086.193237,283.174591 1084.065430,296.057251 1084.796509,309.363617 
	C1085.929443,329.983246 1098.755737,345.101105 1119.172852,348.885223 
	C1142.428467,353.195526 1164.489746,348.549042 1185.980591,339.654633 
	C1208.335938,330.402435 1208.368774,330.481689 1214.937744,307.219818 
	C1215.556152,305.030212 1216.174072,302.840485 1216.958008,300.062988 
	C1195.085938,300.062988 1173.808838,300.062988 1151.926147,300.062988 
	C1155.690918,287.953583 1159.243652,276.429993 1162.859375,264.926208 
	C1165.793457,255.591110 1168.892578,246.306763 1171.721069,236.940308 
	C1172.508423,234.333282 1173.557129,233.133774 1176.505493,233.139130 
	C1224.834473,233.226700 1273.163574,233.202682 1321.492676,233.216660 
	C1322.284546,233.216888 1323.076294,233.377869 1324.493652,233.531738 
	C1312.640137,271.116486 1300.887451,308.381653 1289.134766,345.646820 
	C1289.437866,345.948120 1289.741089,346.249451 1290.044189,346.550751 
	C1366.440186,286.312836 1442.836060,226.074905 1520.190308,165.081451 
	C1467.103394,165.081451 1415.218872,165.081451 1362.418335,165.081451 
	C1364.601318,157.882614 1366.545166,151.307190 1368.590210,144.763428 
	C1373.146118,130.185303 1377.764038,115.626564 1382.328857,101.051254 
	C1383.234741,98.158646 1384.411621,96.462395 1388.144043,96.468033 
	C1477.802734,96.603523 1567.461670,96.572273 1657.120483,96.583107 
	C1658.088257,96.583221 1659.055908,96.740562 1660.748291,96.887375 
	C1658.286011,104.929893 1655.983765,112.646042 1653.559326,120.323631 
	C1649.708984,132.516449 1645.869751,144.714645 1641.794556,156.832794 
	C1641.056274,159.028015 1639.607666,161.354828 1637.815430,162.771454 
	C1578.514160,209.648712 1519.127197,256.417694 1459.761963,303.214325 
	C1443.417114,316.098633 1427.099731,329.017944 1410.775635,341.928558 
	C1409.487793,342.947113 1408.245605,344.023285 1405.822144,346.036194 
	C1467.276855,346.036194 1527.400391,346.036194 1588.551270,346.036194 
	C1585.983887,354.205017 1583.713867,361.411011 1581.454712,368.620331 
	C1577.134888,382.405640 1572.663452,396.146545 1568.602173,410.007629 
	C1567.398682,414.115326 1565.456421,415.263885 1561.271118,415.257904 
	C1473.445557,415.131927 1385.619873,415.162445 1297.794189,415.162262 
	C1287.514893,415.162262 1277.235596,415.162292 1266.255005,415.162292 
	C1270.963745,400.130676 1275.439697,385.842224 1280.330444,370.229828 
	C1277.242676,371.892151 1275.274658,372.945312 1273.312500,374.009064 
	C1243.685669,390.069489 1213.653320,405.338928 1180.552612,412.923248 
	C1140.351807,422.134460 1099.767700,424.203033 1059.176636,415.663818 
	C1029.221558,409.362122 1005.689636,393.976074 993.120422,364.831696 
	C984.240540,344.241821 982.676331,322.520599 985.269714,300.647705 
	C990.284302,258.354950 1005.039001,219.467560 1029.673462,184.729828 
	C1063.078979,137.623581 1107.266113,106.201515 1164.786621,95.500221 
	C1189.272461,90.944809 1214.086060,89.726616 1238.905029,91.883591 
	C1254.104736,93.204567 1269.564697,94.297966 1284.264038,98.029549 
	C1314.608276,105.732742 1332.581665,128.273560 1335.630737,159.433731 
	C1335.727173,160.419952 1335.948853,161.393921 1336.132080,162.824982 
z"/>
<path fill="#FEFEFE" opacity="1.000000" stroke="none" 
	d="
M915.000366,96.569633 
	C936.326965,96.620689 957.085144,97.138489 977.573792,101.686745 
	C1010.544067,109.005753 1023.127747,136.217499 1018.879395,163.689865 
	C1010.349854,218.846588 977.814636,253.629608 925.385864,270.735657 
	C921.530212,271.993652 917.626892,273.105469 913.230164,274.441925 
	C914.092651,275.489166 914.387756,276.222839 914.868652,276.377014 
	C930.670898,281.443695 939.033569,293.678802 943.993286,308.263153 
	C947.979126,319.983978 950.689209,332.186432 953.289185,344.320068 
	C957.498413,363.963562 961.160339,383.724426 965.035156,403.439362 
	C965.762451,407.139557 966.404724,410.856506 967.146301,414.892456 
	C930.129944,414.892456 893.520752,414.892456 856.289429,414.892456 
	C854.220825,405.811066 852.085571,396.641510 850.047974,387.450287 
	C845.593567,367.356659 841.233704,347.242004 836.739502,327.157379 
	C835.146057,320.036499 833.627808,312.867554 831.455688,305.914062 
	C827.237915,292.411896 819.222595,286.647308 804.987854,286.166199 
	C795.308472,285.839050 795.419922,285.874207 792.517090,295.070587 
	C780.237488,333.972839 767.850342,372.841248 755.640076,411.765167 
	C754.823792,414.367371 753.660034,415.195068 751.120972,415.190857 
	C720.125793,415.139648 689.130554,415.152954 658.135315,415.133301 
	C657.655640,415.132996 657.176025,414.927246 656.000977,414.658051 
	C658.482056,406.560486 660.874023,398.538177 663.396851,390.557251 
	C674.500916,355.428711 685.656250,320.316376 696.767212,285.190002 
	C708.914062,246.788895 721.045227,208.382812 733.158447,169.971100 
	C740.247009,147.492920 747.392822,125.031624 754.260437,102.485840 
	C755.631836,97.983803 757.651794,96.422607 762.523193,96.442360 
	C813.181580,96.647774 863.841125,96.569313 915.000366,96.569633 
M841.680603,161.254196 
	C837.983276,161.248840 834.476501,160.427643 833.004517,165.884354 
	C829.813904,177.711670 825.752869,189.303040 822.098633,201.006775 
	C819.601379,209.004990 817.189819,217.029968 814.561646,225.626175 
	C837.454407,225.209457 859.580383,227.022659 881.414368,221.444031 
	C898.609619,217.050629 911.681946,203.826660 914.734375,186.328171 
	C916.738281,174.840210 911.730347,166.834244 900.370117,163.843002 
	C896.535339,162.833298 892.544250,161.986343 888.603699,161.886093 
	C873.286865,161.496490 857.961609,161.436935 841.680603,161.254196 
z"/>
<path fill="#FDFDFD" opacity="1.000000" stroke="none" 
	d="
M1727.000244,96.569443 
	C1797.957886,96.569443 1868.415527,96.569443 1939.616943,96.569443 
	C1936.935547,105.305122 1934.503296,113.357018 1931.991089,121.383896 
	C1928.028564,134.045197 1923.915649,146.660492 1920.076294,159.358734 
	C1918.884155,163.301300 1917.271606,165.077682 1912.598877,165.057205 
	C1861.768555,164.834274 1810.936768,164.967941 1760.105835,164.820999 
	C1755.759033,164.808441 1753.892212,165.820541 1752.601440,170.345337 
	C1748.604492,184.357285 1743.833252,198.148209 1739.385620,212.032333 
	C1739.192017,212.636826 1739.226318,213.314346 1739.058594,214.814545 
	C1789.440186,214.814545 1839.568726,214.814545 1890.397339,214.814545 
	C1887.148193,225.398758 1884.259644,235.044357 1881.221069,244.642471 
	C1877.921997,255.063873 1874.168213,265.354156 1871.264404,275.881409 
	C1870.140015,279.957825 1868.216553,280.578522 1864.621216,280.571686 
	C1817.956665,280.483063 1771.291138,280.621613 1724.628052,280.348083 
	C1719.030273,280.315247 1717.114136,282.146545 1715.605835,287.278534 
	C1710.599487,304.313599 1704.942871,321.157379 1699.565308,338.083923 
	C1699.178955,339.300171 1699.031738,340.592346 1698.633301,342.530212 
	C1754.645264,342.530212 1810.192383,342.530212 1866.745117,342.530212 
	C1858.966919,367.161377 1851.456177,390.945221 1843.890869,414.902466 
	C1754.886597,414.902466 1666.115967,414.902466 1576.786255,414.902466 
	C1579.737793,405.408630 1582.540039,396.267914 1585.420288,387.151794 
	C1597.562500,348.722168 1609.716553,310.296326 1621.888062,271.876068 
	C1631.502808,241.526886 1641.177734,211.196701 1650.773804,180.841690 
	C1659.221313,154.120010 1667.668213,127.397522 1675.910889,100.612442 
	C1676.899536,97.399872 1678.337402,96.479851 1681.502686,96.508034 
	C1696.500977,96.641548 1711.500854,96.568748 1727.000244,96.569443 
z"/>
<path fill="#FDFDFD" opacity="1.000000" stroke="none" 
	d="
M346.621918,222.313660 
	C353.709900,226.410889 360.923431,229.714615 367.136627,234.357117 
	C388.975098,250.674973 394.939514,273.323029 389.284515,298.716888 
	C377.744415,350.538177 344.228088,384.127594 297.016968,405.229126 
	C269.283783,417.624786 239.679520,420.837799 209.637131,420.736481 
	C190.628723,420.672394 171.681793,419.510162 153.140488,414.912720 
	C147.501404,413.514404 141.928696,411.702484 136.501251,409.621765 
	C111.939224,400.205444 100.868988,380.700226 96.660278,356.047516 
	C94.237846,341.858032 95.979065,327.895142 98.368958,313.928467 
	C98.822784,311.276245 99.570061,309.457733 102.957733,309.259399 
	C132.879120,307.507751 162.789612,305.570496 192.704819,303.711884 
	C193.164429,303.683319 193.642807,303.956665 194.455353,304.185822 
	C194.150665,308.069580 193.895859,311.974854 193.530319,315.869751 
	C191.139557,341.344208 202.704773,355.502380 228.221146,357.440674 
	C246.042679,358.794403 262.333588,354.485168 275.514954,341.662872 
	C283.408142,333.984680 288.901337,325.119812 287.157715,313.406708 
	C286.102905,306.320923 282.374207,300.596069 275.913757,297.940613 
	C264.733917,293.345276 253.354858,289.003174 241.715195,285.809021 
	C221.278442,280.200836 200.913162,274.614838 182.183701,264.356934 
	C168.911148,257.087738 157.589752,247.749542 151.218170,233.639832 
	C144.361679,218.456299 145.199707,202.782150 150.037567,187.350677 
	C162.434937,147.806458 190.018036,122.399101 227.001709,106.047295 
	C246.583679,97.389404 267.365448,93.737213 288.529816,92.098129 
	C312.171204,90.267227 335.784363,90.395859 359.158905,95.058006 
	C370.803589,97.380600 381.965973,101.065643 392.129852,107.478424 
	C409.240692,118.274315 416.859528,134.509140 417.918701,153.918289 
	C418.431122,163.308548 416.979004,172.812637 416.298492,182.256699 
	C416.128967,184.609283 415.636749,186.577469 412.277863,186.757553 
	C383.177887,188.317535 354.088440,190.073425 324.995148,191.758759 
	C323.859467,191.824554 322.716644,191.767136 321.006866,191.767136 
	C321.006866,185.240829 321.425537,178.975845 320.894104,172.792511 
	C320.313660,166.039078 316.832703,160.580429 311.105377,156.778687 
	C294.476501,145.740570 263.080292,150.256668 250.424164,165.582703 
	C248.543823,167.859695 246.921066,170.466461 245.713501,173.160187 
	C241.988113,181.470383 244.211456,189.406021 252.635864,192.718796 
	C263.404358,196.953323 274.802368,199.569443 285.881226,203.036102 
	C306.035675,209.342575 326.154846,215.761887 346.621918,222.313660 
z"/>
<path fill="#FDFDFD" opacity="1.000000" stroke="none" 
	d="
M596.493286,250.570480 
	C588.957520,274.522400 581.626343,298.123230 574.184082,321.688965 
	C564.544312,352.212799 554.816467,382.708832 545.121582,413.215240 
	C544.973389,413.681519 544.762085,414.127716 544.467834,414.864929 
	C511.938690,414.864929 479.341217,414.864929 446.258392,414.864929 
	C458.864777,374.823334 471.326965,335.140076 483.854248,295.477356 
	C496.377991,255.825912 508.966858,216.195038 521.775452,175.771637 
	C488.318726,175.771637 455.752930,175.771637 422.287598,175.771637 
	C424.276794,169.373108 425.999634,163.735840 427.781433,158.117279 
	C433.853729,138.969238 440.097809,119.873383 445.898438,100.643616 
	C446.996765,97.002487 448.729980,96.513046 451.899109,96.522369 
	C479.565430,96.603821 507.232056,96.568634 534.898621,96.569038 
	C602.731689,96.570038 670.564819,96.571571 738.397888,96.572876 
	C740.200989,96.572906 742.004089,96.572884 744.683350,96.572884 
	C742.212097,104.542801 739.967468,111.885010 737.658691,119.207001 
	C732.224792,136.439774 726.660400,153.632446 721.389343,170.914703 
	C720.286987,174.529114 718.706055,175.862274 714.814758,175.840286 
	C684.982483,175.671722 655.148560,175.798889 625.315918,175.666855 
	C621.617737,175.650482 619.863342,176.508743 618.673401,180.403137 
	C611.544067,203.734894 604.032166,226.949753 596.493286,250.570480 
z"/>
<path fill="#040404" opacity="1.000000" stroke="none" 
	d="
M842.160034,161.254364 
	C857.961609,161.436935 873.286865,161.496490 888.603699,161.886093 
	C892.544250,161.986343 896.535339,162.833298 900.370117,163.843002 
	C911.730347,166.834244 916.738281,174.840210 914.734375,186.328171 
	C911.681946,203.826660 898.609619,217.050629 881.414368,221.444031 
	C859.580383,227.022659 837.454407,225.209457 814.561646,225.626175 
	C817.189819,217.029968 819.601379,209.004990 822.098633,201.006775 
	C825.752869,189.303040 829.813904,177.711670 833.004517,165.884354 
	C834.476501,160.427643 837.983276,161.248840 842.160034,161.254364 
z"/>
</svg>